<?xml version="1.0" encoding="utf-8"?>
<!-- Generator: Adobe Illustrator 16.0.0, SVG Export Plug-In . SVG Version: 6.00 Build 0)  -->
<!DOCTYPE svg PUBLIC "-//W3C//DTD SVG 1.1//EN" "http://www.w3.org/Graphics/SVG/1.1/DTD/svg11.dtd">
<svg version="1.1" id="图层_1" xmlns="http://www.w3.org/2000/svg" xmlns:xlink="http://www.w3.org/1999/xlink" x="0px" y="0px"
	 width="1000px" height="190px" viewBox="0 0 1000 190" enable-background="new 0 0 1000 190" xml:space="preserve">
<g>
	<path fill="#FFFFFF" d="M114.231,1c10.677,0,20.936,1.781,30.502,5.058c-14.066,1.826-27.532,6.827-39.376,14.63l-0.132,0.085
		C152.33,25.866,189,65.763,189,114.222c0,10.676-1.781,20.937-5.063,30.501c-1.832-14.124-6.868-27.641-14.722-39.521
		C164.135,152.32,124.238,189,75.779,189c-10.677,0-20.936-1.782-30.501-5.064c14.065-1.825,27.531-6.826,39.375-14.629l0.145-0.093
		c-47.113-5.09-83.788-44.99-83.788-93.445c0-10.677,1.781-20.936,5.059-30.502c1.833,14.119,6.867,27.633,14.718,39.51
		C25.876,37.667,65.777,1,114.231,1z M95.005,62.951c-17.697,0-32.044,14.347-32.044,32.044c0,17.698,14.347,32.044,32.044,32.044
		c17.698,0,32.044-14.346,32.044-32.044C127.049,77.298,112.703,62.951,95.005,62.951z"/>
	<g>
		<path fill="#FFFFFF" d="M237.46,124.063h74.213V140h-74.059L237.46,124.063z M268.76,120.949h-28.301l39.683-52.107h28.224
			L268.76,120.949z M241.459,65.916V49.978h70.214v15.938H241.459z"/>
		<path fill="#FFFFFF" d="M366.367,141.743c-24.559-0.581-36.889-9.69-36.991-27.33V49.978h26.147v67.61
			c0,5.936,3.615,9.173,10.843,9.712V141.743z M370.828,127.3c7.485-0.456,11.228-3.693,11.228-9.712v-67.61h26.455v64.808
			c-0.051,17.516-12.612,26.5-37.683,26.957V127.3z"/>
		<path fill="#FFFFFF" d="M429.368,140V49.978h26.225V140H429.368z"/>
		<path fill="#FFFFFF" d="M476.987,117.525v-9.4h45.527v9.4H476.987z"/>
		<path fill="#FFFFFF" d="M566.367,49.978h32.915L627.43,140h-26.687l-5.383-18.988h-21.995l3.769-14.816h14.688l-8.844-36.669
			L563.521,140h-25.378L566.367,49.978z"/>
		<path fill="#FFFFFF" d="M642.44,49.978h25.455V140H642.44V49.978z M671.818,65.293V49.978h13.381
			c23.583,0,35.401,8.426,35.453,25.276v39.097c-0.052,16.976-11.997,25.524-35.837,25.649h-12.997v-15.314h9.151
			c9.125,0.083,13.586-2.594,13.381-8.031V74.507c0-6.226-4.589-9.296-13.766-9.214H671.818z"/>
		<path fill="#FFFFFF" d="M741.279,49.978h23.918V140h-23.918V49.978z M800.034,140h-12.15l-19.842-49.991V49.978h7.229
			l18.688,59.516l19.149-59.516h7.383v40.591L800.034,140z M824.49,49.978h24.147V140H824.49V49.978z"/>
		<path fill="#FFFFFF" d="M868.802,140V49.978h26.225V140H868.802z"/>
		<path fill="#FFFFFF" d="M999.786,139.627l-23.379,0.187L916.422,50.04h23.687L999.786,139.627z M916.729,55.27l23.841,36.918V140
			h-23.841V55.27z M974.484,49.978h24.148v82.676l-24.071-35.113L974.484,49.978z"/>
	</g>
</g>
</svg>
