<?xml version="1.0" encoding="utf-8"?>
<!-- Generator: Adobe Illustrator 15.0.0, SVG Export Plug-In  -->
<!DOCTYPE svg PUBLIC "-//W3C//DTD SVG 1.1//EN" "http://www.w3.org/Graphics/SVG/1.1/DTD/svg11.dtd" [
	<!ENTITY ns_flows "http://ns.adobe.com/Flows/1.0/">
]>
<svg version="1.1"
	 xmlns="http://www.w3.org/2000/svg" xmlns:xlink="http://www.w3.org/1999/xlink" xmlns:a="http://ns.adobe.com/AdobeSVGViewerExtensions/3.0/"
	 x="0px" y="0px" width="210px" height="40px" viewBox="0 -0.06 210 40" enable-background="new 0 -0.06 210 40"
	 xml:space="preserve">
<defs>
</defs>
<path fill="#FFFFFF" d="M24.03,0c2.267,0,4.443,0.378,6.474,1.073c-2.986,0.387-5.843,1.449-8.357,3.104l-0.028,0.019
	c9.997,1.081,17.78,9.549,17.78,19.833c0,2.267-0.377,4.443-1.074,6.474c-0.389-2.997-1.459-5.866-3.125-8.388
	c-1.078,10-9.545,17.784-19.831,17.784c-2.266,0-4.443-0.378-6.473-1.074c2.985-0.387,5.843-1.449,8.356-3.104l0.031-0.021
	C7.784,34.619,0,26.151,0,15.868c0-2.267,0.379-4.444,1.074-6.473c0.389,2.996,1.458,5.864,3.125,8.384
	C5.278,7.781,13.747,0,24.03,0z M19.95,13.147c-3.756,0-6.801,3.045-6.801,6.8c0,3.756,3.045,6.802,6.801,6.802
	c3.756,0,6.8-3.045,6.8-6.802C26.75,16.192,23.706,13.147,19.95,13.147z"/>
<path fill="#FFFFFF" d="M50.739,9.945h5.722v19.99h-5.722V9.945z M57.334,13.291V9.945h7.435v3.346H57.334z M57.334,21.198v-3.346
	h7.007v3.346H57.334z"/>
<path fill="#FFFFFF" d="M73.946,9.945l3.255,6.594l-2.535,4.978l-6.63-11.571H73.946z M81.758,9.945h5.961l-6.904,11.571v8.419
	h-5.722v-7.078L81.758,9.945z"/>
<path fill="#FFFFFF" d="M91.962,24.945v-2.088h10.142v2.088H91.962z"/>
<path fill="#FFFFFF" d="M112.188,9.945h7.332l6.27,19.99h-5.944l-1.199-4.217h-4.9l0.839-3.29h3.272l-1.97-8.143l-4.334,15.649
	H105.9L112.188,9.945z"/>
<path fill="#FFFFFF" d="M129.45,9.945h5.67v19.99h-5.67V9.945z M135.994,13.346v-3.4h2.981c5.253,0,7.886,1.871,7.897,5.612v8.683
	c-0.011,3.77-2.672,5.668-7.983,5.695h-2.896v-3.4h2.039c2.033,0.019,3.026-0.576,2.981-1.783v-9.36
	c0-1.382-1.022-2.064-3.066-2.046H135.994z"/>
<path fill="#FFFFFF" d="M151.783,9.945h5.328v19.99h-5.328V9.945z M164.872,29.936h-2.707l-4.42-11.102V9.945h1.61l4.163,13.216
	l4.266-13.216h1.645v9.014L164.872,29.936z M170.079,9.945h5.379v19.99h-5.379V9.945z"/>
<path fill="#FFFFFF" d="M180.506,29.936V9.945h5.842v19.99H180.506z"/>
<path fill="#FFFFFF" d="M210,29.853l-5.208,0.042L191.43,9.959h5.276L210,29.853z M191.498,11.12l5.311,8.198v10.617h-5.311V11.12z
	 M204.364,9.945h5.379v18.359l-5.362-7.798L204.364,9.945z"/>
</svg>
